<svg xmlns="http://www.w3.org/2000/svg" fill="none" viewBox="0 0 48 48" id="Song-Recommendation--Streamline-Flex.svg" height="48" width="48"><desc>Song Recommendation Streamline Icon: https://streamlinehq.com</desc><g id="song-recommendation--song-recommendation-entertainment"><path id="Intersect" stroke="#000000" stroke-linecap="round" stroke-linejoin="round" d="m23.795759999999998 24.265577142857143 0.0007542857142857143 3.8860799999999998 0.55704 -0.12216C32.92974857142857 26.265977142857142 37.71257142857142 25.155154285714286 46.285714285714285 22.90176l-0.00034285714285714285 -5.252057142857143c-0.00034285714285714285 -2.205017142857143 -2.0564571428571425 -3.8438742857142856 -4.220571428571429 -3.4065942857142852 -4.501714285714285 0.9095657142857143 -9.02424 1.7117485714285712 -13.448845714285714 2.9747314285714284 -2.848045714285714 0.8129142857142857 -4.820194285714286 3.7295314285714283 -4.820194285714286 7.047737142857143Z" stroke-width="1"></path><path id="vector" stroke="#000000" stroke-linecap="round" stroke-linejoin="round" d="M5.601565714285714 22.7076v7.7764114285714285" stroke-width="1"></path><path id="vector_2" stroke="#000000" stroke-linecap="round" stroke-linejoin="round" d="M1.7142857142857142 26.595702857142857h7.776445714285715" stroke-width="1"></path><path id="Vector" stroke="#000000" stroke-linecap="round" stroke-linejoin="round" d="m23.795759999999998 28.113291428571426 0 12.464879999999999" stroke-width="1"></path><path id="Vector_2" stroke="#000000" stroke-linecap="round" stroke-linejoin="round" d="M46.285714285714285 37.78422857142857V22.928571428571427" stroke-width="1"></path><path id="Vector_3" stroke="#000000" stroke-linecap="round" stroke-linejoin="round" d="M18.087874285714282 46.285714285714285c3.6530399999999994 0 5.707885714285714 -2.054742857142857 5.707885714285714 -5.707885714285714 0 -3.6531428571428566 -2.0548457142857144 -5.707885714285714 -5.707885714285714 -5.707885714285714 -3.6530057142857144 0 -5.707851428571428 2.054742857142857 -5.707851428571428 5.707885714285714 0 3.6531428571428566 2.0548457142857144 5.707885714285714 5.707851428571428 5.707885714285714Z" stroke-width="1"></path><path id="Vector_4" stroke="#000000" stroke-linecap="round" stroke-linejoin="round" d="M40.65428571428571 43.377942857142855c3.603771428571428 0 5.630742857142857 -2.026971428571428 5.630742857142857 -5.630742857142857 0 -3.603325714285714 -2.026971428571428 -5.630297142857143 -5.630742857142857 -5.630297142857143 -3.603428571428571 0 -5.6304 2.026971428571428 -5.6304 5.630297142857143 0 3.603771428571428 2.026971428571428 5.630742857142857 5.6304 5.630742857142857Z" stroke-width="1"></path><path id="Vector 2141" stroke="#000000" stroke-linecap="round" stroke-linejoin="round" d="M20.154205714285713 5.811291428571428c-1.2104914285714286 -1.2105257142857142 -1.397862857142857 -2.321005714285714 -2.2772571428571426 -3.440033142857143 -0.6883885714285713 -0.8759622857142857 -1.9916571428571426 -0.8759622857142857 -2.6800457142857144 0 -0.8793942857142857 1.1190274285714283 -1.0667657142857143 2.2295074285714285 -2.2772571428571426 3.440033142857143 -1.2105257142857142 1.2104914285714286 -2.321005714285714 1.397862857142857 -3.4400228571428566 2.2772571428571426 -0.8759657142857142 0.6883885714285713 -0.8759657142857142 1.9916571428571426 0 2.6800457142857144 1.1190171428571427 0.8793942857142857 2.229428571428571 1.0667657142857143 3.4399199999999994 2.2772571428571426 1.2105257142857142 1.2105257142857142 1.397897142857143 2.321005714285714 2.2772571428571426 3.4400228571428566 0.6883885714285713 0.8759657142857142 1.9916571428571426 0.8759657142857142 2.6800457142857144 0 0.8793942857142857 -1.1190171428571427 1.0667657142857143 -2.229497142857143 2.2772914285714285 -3.4400228571428566 1.2104914285714286 -1.2104914285714286 2.321005714285714 -1.397862857142857 3.4400228571428566 -2.2772571428571426 0.8759314285714285 -0.6883885714285713 0.8759314285714285 -1.9916571428571426 0 -2.6800457142857144 -1.1190171428571427 -0.8793942857142857 -2.229462857142857 -1.0667657142857143 -3.4399542857142853 -2.2772571428571426Z" stroke-width="1"></path></g></svg>