<svg xmlns="http://www.w3.org/2000/svg" fill="none" viewBox="0 0 48 48" id="Top-Order-Report--Streamline-Flex.svg" height="48" width="48"><desc>Top Order Report Streamline Icon: https://streamlinehq.com</desc><g id="top-order-report"><path id="Subtract" stroke="#000000" stroke-linejoin="round" d="M36.67371428571428 18.19580571428571 32.112925714285716 17.69897142857143c0.28405714285714284 12.759017142857141 -0.65496 25.22777142857143 -0.8948571428571428 28.153371428571425 -4.813268571428571 -0.12377142857142856 -9.62070857142857 -0.12377142857142856 -14.433977142857142 0 -0.23993142857142857 -2.925942857142857 -1.179085714285714 -15.394388571428571 -0.8950285714285714 -28.153371428571425l-4.564422857142858 0.4970057142857143c-1.4466857142857141 0.15754285714285712 -2.412788571428571 -1.4406514285714285 -1.5649371428571428 -2.6256C13.61088 10.188034285714284 17.367874285714283 6.332057142857143 22.979725714285713 2.0580788571428568c0.6018857142857142 -0.4583897142857143 1.4372571428571428 -0.4583897142857143 2.039142857142857 0C30.630651428571426 6.3320228571428565 34.387542857142854 10.187965714285715 38.23885714285714 15.570205714285715c0.8478857142857142 1.1849828571428571 -0.11828571428571429 2.783177142857143 -1.5651428571428572 2.6256Z" stroke-width="1"></path><path id="Rectangle 58" stroke="#000000" stroke-linejoin="round" d="M15.15918857142857 29.812491428571423c-3.0884228571428567 0.08711999999999999 -6.179211428571429 0.21983999999999998 -9.27486857142857 0.39819428571428567 -1.893497142857143 0.10906285714285713 -3.3637988571428568 1.6901828571428572 -3.3071211428571425 3.580834285714286 0.09970285714285715 3.3258514285714282 0.30623999999999996 6.013508571428571 0.6757679999999999 9.333051428571428 0.2103702857142857 1.8898285714285714 1.8920160000000001 3.2602285714285713 3.7951817142857136 3.1460571428571424 11.326971428571428 -0.6812571428571428 22.578342857142857 -0.6812571428571428 33.905451428571425 0 1.9032 0.11417142857142858 3.5845714285714285 -1.2562285714285715 3.795085714285714 -3.1460571428571424 0.3696 -3.319542857142857 0.576 -6.007199999999999 0.6757714285714286 -9.333051428571428 0.05657142857142857 -1.8906514285714286 -1.4136 -3.471771428571428 -3.3072 -3.580834285714286 -3.0956571428571427 -0.1783542857142857 -6.186514285714285 -0.3110742857142857 -9.274834285714284 -0.39819428571428567" stroke-width="1"></path></g></svg>