<svg width="301" height="314" viewBox="0 0 301 314" fill="none" xmlns="http://www.w3.org/2000/svg">
<path d="M100.854 116.483C90.2245 106.246 89.9063 89.3309 100.143 78.7017V78.7017C111.167 67.255 129.383 66.9123 140.83 77.9363L149.314 86.107C160.352 96.7373 160.682 114.303 150.052 125.341V125.341C139.422 136.379 121.856 136.709 110.818 126.079L100.854 116.483Z" fill="#FFEFF3"/>
<path d="M92.3161 131.424C81.6869 121.187 81.3687 104.272 91.6053 93.6428V93.6428C102.629 82.196 120.845 81.8533 132.292 92.8773L140.776 101.048C151.814 111.678 152.145 129.244 141.514 140.282V140.282C130.884 151.32 113.319 151.65 102.281 141.02L92.3161 131.424Z" fill="#FFEFF3"/>
<path d="M88.047 163.44C77.4179 153.203 77.0997 136.288 87.3363 125.659V125.659C98.3603 114.212 116.576 113.87 128.023 124.894L136.507 133.064C147.545 143.695 147.876 161.26 137.245 172.298V172.298C126.615 183.336 109.05 183.667 98.0116 173.036L88.047 163.44Z" fill="#FFEFF3"/>
<path d="M77.3749 176.246C66.7458 166.01 66.4275 149.095 76.6641 138.466V138.466C87.6882 127.019 105.904 126.676 117.351 137.7L125.835 145.871C136.873 156.501 137.204 174.067 126.573 185.105V185.105C115.943 196.143 98.3774 196.473 87.3394 185.843L77.3749 176.246Z" fill="#FFEFF3"/>
<path d="M73.1061 189.053C62.477 178.816 62.1587 161.901 72.3953 151.272V151.272C83.4194 139.825 101.636 139.482 113.082 150.506L121.566 158.677C132.604 169.308 132.935 186.873 122.305 197.911V197.911C111.674 208.949 94.1086 209.28 83.0706 198.649L73.1061 189.053Z" fill="#FFEFF3"/>
<path d="M73.1061 201.859C62.477 191.623 62.1587 174.708 72.3953 164.078V164.078C83.4194 152.632 101.636 152.289 113.082 163.313L121.566 171.484C132.604 182.114 132.935 199.68 122.305 210.718V210.718C111.674 221.756 94.1086 222.086 83.0706 211.456L73.1061 201.859Z" fill="#FFEFF3"/>
<path d="M116.106 23.2526C112.72 19.9917 112.619 14.6034 115.879 11.2174V11.2174C119.391 7.57101 125.194 7.46184 128.84 10.9736L130.403 12.4783C133.919 15.8646 134.024 21.4601 130.638 24.9763V24.9763C127.252 28.4925 121.656 28.5977 118.14 25.2114L116.106 23.2526Z" fill="#FFEFF3"/>
<path d="M279.837 136.377C276.451 133.116 276.349 127.728 279.61 124.342V124.342C283.122 120.695 288.925 120.586 292.571 124.098L294.134 125.602C297.65 128.989 297.755 134.584 294.369 138.101V138.101C290.982 141.617 285.387 141.722 281.871 138.336L279.837 136.377Z" fill="#FFEFF3"/>
<path d="M75.2409 229.607C64.6117 219.37 64.2935 202.455 74.5301 191.826V191.826C85.5541 180.379 103.77 180.036 115.217 191.06L123.701 199.231C134.739 209.861 135.07 227.427 124.439 238.465V238.465C113.809 249.503 96.2434 249.833 85.2054 239.203L75.2409 229.607Z" fill="#FFEFF3"/>
<path d="M90.1816 244.548C79.5524 234.311 79.2342 217.396 89.4708 206.767V206.767C100.495 195.32 118.711 194.977 130.158 206.001L138.642 214.172C149.68 224.803 150.01 242.368 139.38 253.406V253.406C128.75 264.444 111.184 264.774 100.146 254.144L90.1816 244.548Z" fill="#FFEFF3"/>
<path d="M96.5849 270.161C85.9557 259.924 85.6375 243.009 95.8741 232.38V232.38C106.898 220.933 125.114 220.59 136.561 231.615L145.045 239.785C156.083 250.416 156.414 267.981 145.783 279.019V279.019C135.153 290.057 117.587 290.388 106.549 279.757L96.5849 270.161Z" fill="#FFEFF3"/>
<path d="M122.198 263.757C111.569 253.521 111.251 236.606 121.487 225.977V225.977C132.511 214.53 150.727 214.187 162.174 225.211L170.658 233.382C181.696 244.012 182.027 261.578 171.396 272.616V272.616C160.766 283.654 143.2 283.984 132.162 273.354L122.198 263.757Z" fill="#FFEFF3"/>
<path d="M177.693 268.026C167.064 257.79 166.745 240.875 176.982 230.245V230.245C188.006 218.799 206.222 218.456 217.669 229.48L226.153 237.651C237.191 248.281 237.521 265.847 226.891 276.885V276.885C216.261 287.923 198.695 288.253 187.657 277.623L177.693 268.026Z" fill="#FFEFF3"/>
<path d="M164.886 270.161C154.257 259.924 153.939 243.009 164.176 232.38V232.38C175.2 220.933 193.416 220.59 204.863 231.615L213.347 239.785C224.385 250.416 224.715 267.981 214.085 279.019V279.019C203.454 290.057 185.889 290.388 174.851 279.757L164.886 270.161Z" fill="#FFEFF3"/>
<path d="M181.962 229.607C171.332 219.37 171.014 202.455 181.251 191.826V191.826C192.275 180.379 210.491 180.036 221.938 191.06L230.422 199.231C241.46 209.861 241.79 227.427 231.16 238.465V238.465C220.53 249.503 202.964 249.833 191.926 239.203L181.962 229.607Z" fill="#FFEFF3"/>
<path d="M179.827 208.263C169.198 198.026 168.88 181.111 179.117 170.482V170.482C190.141 159.035 208.357 158.692 219.803 169.716L228.288 177.887C239.326 188.517 239.656 206.083 229.026 217.121V217.121C218.395 228.159 200.83 228.489 189.792 217.859L179.827 208.263Z" fill="#FFEFF3"/>
<path d="M175.559 189.053C164.929 178.816 164.611 161.901 174.848 151.272V151.272C185.872 139.825 204.088 139.482 215.535 150.506L224.019 158.677C235.057 169.308 235.387 186.873 224.757 197.911V197.911C214.127 208.949 196.561 209.28 185.523 198.649L175.559 189.053Z" fill="#FFEFF3"/>
<path d="M169.155 161.305C158.526 151.069 158.208 134.154 168.444 123.525V123.525C179.468 112.078 197.685 111.735 209.131 122.759L217.615 130.93C228.653 141.56 228.984 159.126 218.354 170.164V170.164C207.723 181.202 190.158 181.532 179.12 170.902L169.155 161.305Z" fill="#FFEFF3"/>
<path d="M154.214 139.961C143.585 129.725 143.267 112.81 153.503 102.18V102.18C164.527 90.7336 182.743 90.3909 194.19 101.415L202.674 109.586C213.712 120.216 214.043 137.782 203.412 148.82V148.82C192.782 159.857 175.217 160.188 164.179 149.558L154.214 139.961Z" fill="#FFEFF3"/>
<path d="M132.87 150.633C122.241 140.397 121.923 123.482 132.159 112.852V112.852C143.183 101.406 161.399 101.063 172.846 112.087L181.33 120.258C192.368 130.888 192.699 148.454 182.068 159.492V159.492C171.438 170.53 153.873 170.86 142.835 160.23L132.87 150.633Z" fill="#FFEFF3"/>
<path d="M128.601 174.112C117.972 163.875 117.653 146.96 127.89 136.331V136.331C138.914 124.884 157.13 124.542 168.577 135.566L177.061 143.736C188.099 154.367 188.429 171.932 177.799 182.97V182.97C167.169 194.008 149.603 194.339 138.565 183.708L128.601 174.112Z" fill="#FFEFF3"/>
<path d="M120.064 186.918C109.435 176.682 109.116 159.767 119.353 149.138V149.138C130.377 137.691 148.593 137.348 160.04 148.372L168.524 156.543C179.562 167.173 179.892 184.739 169.262 195.777V195.777C158.632 206.815 141.066 207.145 130.028 196.515L120.064 186.918Z" fill="#FFEFF3"/>
<path d="M115.795 208.263C105.166 198.026 104.847 181.111 115.084 170.482V170.482C126.108 159.035 144.324 158.692 155.771 169.716L164.255 177.887C175.293 188.517 175.624 206.083 164.993 217.121V217.121C154.363 228.159 136.797 228.489 125.759 217.859L115.795 208.263Z" fill="#FFEFF3"/>
<path d="M147.811 229.607C137.182 219.37 136.863 202.455 147.1 191.826V191.826C158.124 180.379 176.34 180.036 187.787 191.06L196.271 199.231C207.309 209.861 207.639 227.427 197.009 238.465V238.465C186.379 249.503 168.813 249.833 157.775 239.203L147.811 229.607Z" fill="#FFEFF3"/>
<path d="M196.903 144.23C186.273 133.993 185.955 117.078 196.192 106.449V106.449C207.216 95.0024 225.432 94.6597 236.879 105.684L245.363 113.854C256.401 124.485 256.731 142.05 246.101 153.088V153.088C235.471 164.126 217.905 164.457 206.867 153.826L196.903 144.23Z" fill="#FFEFF3"/>
<path d="M171.289 122.886C160.66 112.649 160.342 95.7342 170.579 85.1051V85.1051C181.603 73.6583 199.819 73.3156 211.266 84.3396L219.75 92.5103C230.788 103.141 231.118 120.706 220.488 131.744V131.744C209.858 142.782 192.292 143.113 181.254 132.482L171.289 122.886Z" fill="#FFEFF3"/>
<path d="M113.66 152.768C103.031 142.531 102.713 125.616 112.949 114.987V114.987C123.973 103.54 142.189 103.197 153.636 114.221L162.12 122.392C173.158 133.022 173.489 150.588 162.858 161.626V161.626C152.228 172.664 134.663 172.994 123.625 162.364L113.66 152.768Z" fill="#FFEFF3"/>
<path d="M130.736 101.542C120.106 91.3051 119.788 74.3901 130.025 63.7609V63.7609C141.049 52.3142 159.265 51.9715 170.712 62.9955L179.196 71.1662C190.234 81.7965 190.564 99.3621 179.934 110.4V110.4C169.304 121.438 151.738 121.769 140.7 111.138L130.736 101.542Z" fill="#FFEFF3"/>
<path d="M174.9 70.7935C183.769 58.9991 200.52 56.6276 212.314 65.4966V65.4966C225.016 75.0479 227.57 93.0874 218.019 105.789L210.939 115.203C201.729 127.451 184.334 129.914 172.086 120.704V120.704C159.838 111.494 157.375 94.0983 166.586 81.8503L174.9 70.7935Z" fill="#FFEFF3"/>
<path d="M183.822 120.508C181.596 105.92 191.617 92.2896 206.205 90.0636V90.0636C221.915 87.6663 236.594 98.4586 238.991 114.169L240.768 125.813C243.08 140.962 232.673 155.117 217.524 157.428V157.428C202.375 159.74 188.22 149.333 185.908 134.184L183.822 120.508Z" fill="#FFEFF3"/>
<path d="M213.704 90.4848C220.412 83.1397 231.804 82.623 239.149 89.3307V89.3307C247.059 96.5545 247.616 108.823 240.392 116.733L220.026 139.034C213.06 146.662 201.23 147.199 193.602 140.233V140.233C185.975 133.267 185.438 121.437 192.404 113.809L213.704 90.4848Z" fill="#FFEFF3"/>
<path d="M237.941 136.931C247.561 139.461 253.309 149.31 250.78 158.93V158.93C248.056 169.29 237.449 175.48 227.089 172.756L197.88 165.076C187.89 162.449 181.921 152.221 184.547 142.231V142.231C187.174 132.241 197.402 126.272 207.392 128.899L237.941 136.931Z" fill="#FFEFF3"/>
<path d="M55.3762 41.2013C55.2033 40.8206 54.8877 40.5231 54.4974 40.373C54.1072 40.2228 53.6736 40.2321 53.2901 40.3988C33.075 46.3309 29.7053 61.2565 19.438 69.9189C18.6355 70.5616 16.3896 71.364 14.9445 72.3263C13.501 73.1288 12.8699 75.7439 15.4256 75.2133C26.0588 73.0085 29.8668 61.2565 39.8128 51.79C46.0711 45.853 56.4983 44.2497 55.3762 41.2013Z" fill="#FFAFC5"/>
<path d="M3.07246 116.769C18.3178 100.244 30.027 109.389 41.7394 91.418C48.9584 80.3499 56.0175 74.894 66.4463 73.4572C68.5324 73.1276 69.0136 70.0874 66.9275 70.5686C43.023 73.7702 45.5903 88.5311 29.7056 98.7985C21.5244 104.094 10.9341 103.29 0.988011 114.68C-0.457097 116.286 1.629 118.373 3.07246 116.769Z" fill="#FFAFC5"/>
<path d="M40.9379 64.9462C35.0998 70.1895 30.6772 80.8309 24.2508 84.1957C21.6836 85.9605 16.3892 86.9228 11.2547 88.3679C7.40384 89.49 2.1095 91.4146 1.46851 94.2999C1.30373 96.2262 2.75213 96.8672 3.55296 96.0647C9.97932 89.9679 17.6728 91.5728 26.3369 86.9195C34.037 81.7866 36.2829 74.7258 41.5789 69.2717C43.4196 67.0968 45.796 65.44 48.4733 64.4651C48.6865 64.3842 48.8813 64.2612 49.0459 64.1034C49.2106 63.9456 49.3417 63.7562 49.4316 63.5466C49.5214 63.3369 49.568 63.1113 49.5687 62.8833C49.5694 62.6552 49.5241 62.4293 49.4356 62.2191C48.638 60.9355 43.3865 62.7464 40.9379 64.9462Z" fill="#FFAFC5"/>
<path d="M44.948 251.055C51.3661 262.768 63.7196 278.01 80.7247 284.748C105.914 294.855 218.704 289.401 231.217 284.748C250.47 278.01 279.349 245.44 261.536 231.641C260.093 229.878 229.128 230.679 242.765 226.027C246.616 226.027 254.477 226.192 259.29 226.668C269.719 227.792 269.558 233.729 275.173 233.408C285.121 232.927 288.17 202.121 282.394 189.768C277.419 179.179 242.605 181.104 232.338 181.425C234.584 200.838 217.737 209.342 217.737 209.342C219.342 214.796 219.02 242.391 217.737 253.623C258.649 278.175 187.139 274.161 173.134 269.025C168.603 267.364 168.802 231.16 169.445 222.817C164.472 221.214 156.289 222.653 151.797 225.706C154.76 229.654 158.21 233.212 162.064 236.295C162.064 250.253 137.999 283.464 130.78 284.426C125.645 280.576 125.807 273.998 125.324 265.655C119.71 262.928 91.1503 250.253 74.7861 229.239C59.2261 230.038 31.3109 225.706 44.948 251.055Z" fill="#FFAFC5"/>
<path d="M274.219 134.736C279.674 150.94 304.703 142.597 298.935 127.355C294.59 111.953 268.759 118.693 274.219 134.736ZM281.118 133.614C279.674 132.651 280.315 131.687 282.401 128.96C284.807 125.752 284.807 124.63 286.572 125.752C288.337 126.874 287.696 127.195 285.45 130.565C283.037 134.095 282.556 134.576 281.113 133.614H281.118ZM290.423 134.095C288.177 137.946 287.374 136.983 286.412 136.341C285.45 135.698 285.288 135.217 287.374 132.33C289.782 129.122 289.782 127.998 291.547 129.122C293.306 130.404 292.509 130.565 290.418 134.095H290.423Z" fill="#FFAFC5"/>
<path d="M64.039 179.98C53.9331 179.651 36.1238 180.3 28.1008 187.359C17.9949 196.344 23.7704 230.999 33.7181 231.64C39.1722 231.961 40.2944 228.11 50.7232 226.988C58.2811 226.079 65.9024 225.81 73.5055 226.186C66.1267 214.635 74.308 203.244 74.308 203.244C74.308 203.244 64.8415 197.468 64.039 179.98Z" fill="#FFAFC5"/>
<path d="M169.93 35.1045C183.888 47.2981 200.249 37.1906 210.842 41.6825C212.767 42.4849 215.494 45.3719 217.259 43.1259C218.704 41.3611 214.21 39.1152 211.805 38.3127C204.584 35.907 193.185 37.9832 186.295 37.6717C180.459 37.8408 174.779 35.7783 170.411 31.9045C169.127 30.9323 167.843 33.3397 169.93 35.1045Z" fill="#FFAFC5"/>
<path d="M178.112 6.38529C175.545 11.8411 190.471 16.9756 196.884 17.9379C203.297 18.9002 214.05 16.1731 221.271 18.9002C226.727 20.8248 228.492 23.8749 233.143 26.4405C237.915 28.9733 243.332 30.0342 248.707 29.4889C250.793 29.3241 250.471 26.8755 248.385 26.9217C233.776 27.2512 232.662 18.0978 221.271 15.2108C211.004 12.6436 204.104 15.692 196.884 14.728C192.071 14.087 187.098 11.6813 180.358 6.06397C180.209 5.89504 180.021 5.76579 179.81 5.6879C179.598 5.61001 179.371 5.58591 179.148 5.6178C178.925 5.64968 178.714 5.73653 178.533 5.87052C178.352 6.0045 178.208 6.18141 178.112 6.38529Z" fill="#FFAFC5"/>
<path d="M214.371 29.8187C217.58 30.4596 223.517 36.0802 228.971 38.8024C232.34 40.4073 236.511 41.8508 238.116 38.9672C238.597 38.1647 237.635 37.2024 236.672 37.2024C231.605 36.753 226.819 34.6715 223.035 31.2704C216.136 24.2112 204.58 25.8162 196.241 26.4572C192.786 26.5894 189.357 25.8151 186.295 24.2112C184.368 23.2489 184.528 26.2973 186.459 27.0998C197.524 32.8588 203.461 26.9219 214.371 29.8187Z" fill="#FFAFC5"/>
<path d="M181.482 151.261C183.566 155.752 190.465 149.496 194.797 146.447C201.857 141.474 199.77 136.661 196.562 134.896C191.909 132.489 182.283 136.501 187.417 144.683C187.738 145.329 180.198 148.535 181.482 151.261Z" fill="#FFAFC5"/>
<path d="M114.098 2.53584C96.2885 12.1622 108.092 38.1873 126.456 33.3396C151.936 26.6116 136.237 -8.69548 114.098 2.53584ZM130.943 16.9754C131.108 19.7025 121.317 24.9968 119.232 24.6755C116.504 24.0345 116.022 10.8786 118.59 9.75479C120.514 8.95232 130.783 14.4081 130.943 16.9754Z" fill="#FFAFC5"/>
<path d="M246.138 113.078C253.678 95.9114 241.967 82.9235 223.196 81.7932C217.099 59.0092 202.017 53.8764 179.877 62.7003C162.229 49.7042 134.634 47.941 125.006 67.8348C103.509 69.2782 90.1912 73.6102 91.6347 92.863C77.3566 100.884 76.714 111.473 83.9346 123.026C70.2975 142.278 48.4775 184.795 71.9057 203.565C50.7234 231.641 115.867 262.928 123.402 266.457C124.525 311.381 150.036 267.901 160.784 247.846C167.683 234.53 161.587 233.889 154.852 226.349C157.9 225.225 159.985 224.101 160.949 223.78C162.714 223.944 164.478 224.101 166.403 224.262C165.926 238.651 166.838 253.052 169.127 267.265C169.61 270.153 173.459 271.916 181.156 273.032C200.247 274.316 257.043 277.845 219.18 252.174C220.464 243.031 221.105 227.146 220.783 209.497C232.174 201.796 236.347 190.725 233.298 174.682C247.738 175.323 257.203 160.884 252.07 146.925C261.966 135.969 260.765 116.626 246.138 113.078ZM182.283 79.0644C191.428 76.0177 200.573 81.312 204.264 90.9285C208.756 92.5334 217.259 95.0924 216.937 112.589C216.921 113.551 215.174 113.872 214.853 111.465C213.408 100.074 209.397 96.063 204.264 94.458C203.734 94.2631 203.248 93.9641 202.834 93.5787C202.421 93.1933 202.088 92.7293 201.857 92.2138C198.935 86.6887 196.09 83.3882 191.749 82.1046C185.817 80.18 182.925 84.8333 180.679 82.1046C174.101 74.4045 163.832 71.1946 155.811 76.0078C151.64 73.279 140.409 74.884 137.356 79.6972C132.381 79.5324 144.575 69.4282 154.684 72.9594C163.351 67.8348 174.583 70.4004 182.283 79.0644ZM105.112 194.574C103.258 193.818 101.323 193.28 99.3447 192.969C98.3824 185.269 103.517 160.882 115.068 151.415C120.479 156.416 126.866 160.242 133.828 162.653C118.27 167.948 95.1659 173.082 105.112 194.581V194.574ZM105.593 132.645C106.278 138.426 108.618 143.886 112.333 148.369C110.165 150.276 108.227 152.43 106.557 154.785C96.1282 149.331 85.8608 139.543 84.8969 129.116C90.9937 119.007 103.352 111.628 111.049 113.071C107.519 117.089 104.791 124.469 105.593 132.652V132.645ZM107.519 181.58C111.53 173.878 120.033 170.348 141.693 164.893C148.752 163.128 150.678 165.057 155.009 173.878C160.463 182.381 153.339 181.766 146.987 184.948C132.228 192.341 138.966 218.961 154.368 222.491C147.468 225.218 134.794 231.153 126.291 227.624C122.28 225.861 117.306 216.233 113.455 206.447C106.557 188.644 105.755 185.116 107.519 181.58ZM154.689 164.573C149.554 158.796 144.26 159.92 139.126 161.043C128.061 157.522 116.984 151.096 112.333 142.438C109.731 137.971 108.668 132.773 109.306 127.643C109.945 122.513 112.25 117.734 115.867 114.04C116.367 113.636 116.708 113.068 116.829 112.437C116.994 104.414 120.519 98.477 124.048 96.0712C127.58 97.195 133.355 97.195 138.649 96.7139C144.104 96.0712 145.708 93.6655 146.992 93.8253C148.595 93.9901 148.114 95.7499 152.286 97.6762C157.522 100.002 163.268 100.941 168.972 100.403C174.588 100.074 176.204 97.9662 177.796 98.6385C179.252 99.2531 177.961 102.489 180.844 106.019C188.225 114.843 202.022 119.816 201.381 128.32C199.784 127.406 198.05 126.755 196.246 126.394C193.679 126.074 193.503 128.032 195.284 128.961C197.559 130.09 199.578 131.674 201.216 133.614C208.435 145.329 189.663 167.948 154.689 164.58V164.573ZM84.2559 107.462C85.378 102.649 88.9076 98.7983 95.1659 96.0712C95.5738 95.8722 95.9047 95.5444 96.1076 95.1384C96.3104 94.7324 96.3738 94.2709 96.288 93.8253C93.7175 76.3818 105.914 73.6102 125.007 72.1668C125.56 72.1482 126.099 71.9916 126.575 71.7112C127.051 71.4309 127.45 71.0358 127.734 70.5618C130.06 66.797 133.226 63.6213 136.983 61.2833C140.741 58.9453 144.988 57.5082 149.393 57.0846C156.452 56.4436 162.71 58.3682 162.389 59.0092C162.068 59.6502 157.736 57.8871 151.159 58.3682C145.941 58.6239 140.939 60.5348 136.88 63.824C134.781 65.9299 133.046 68.3693 131.745 71.043C131.137 72.2237 130.248 73.2366 129.156 73.9922C128.064 74.7477 126.803 75.2227 125.484 75.375C123.879 75.5398 122.435 75.7046 120.99 75.8562C105.273 77.7808 100.707 80.3431 100.941 94.4663C100.929 95.0421 100.777 95.6062 100.497 96.1097C100.218 96.6131 99.8191 97.0406 99.3364 97.3549C86.1805 104.094 88.2666 112.758 90.3527 116.769C89.2289 117.731 88.1051 118.854 86.983 119.977C85.6989 118.188 84.7945 116.154 84.3256 114.002C83.8566 111.85 83.8329 109.624 84.2559 107.462ZM66.763 188.484C63.3933 173.082 72.2172 149.659 81.8435 133.942C84.5706 143.086 92.9134 152.068 104.466 158.165C97.7282 169.716 94.8396 184.958 95.3208 192.498C91.5446 192.39 87.7866 193.061 84.281 194.469C80.7753 195.877 77.5971 197.991 74.9443 200.681C72.7829 199.357 70.933 197.581 69.521 195.476C68.109 193.371 67.1682 190.986 66.763 188.484ZM131.9 282.502C128.051 283.464 128.37 272.875 127.889 267.901C133.986 259.879 140.404 251.055 159.657 237.097C159.662 250.253 136.398 281.378 131.905 282.502H131.9ZM156.928 234.21C139.121 247.045 131.9 255.869 126.279 263.409C117.615 260.682 70.286 232.444 72.0507 217.203C71.7212 202.283 88.7362 190.73 106.865 199.875C118.578 228.754 120.824 238.54 150.826 228.112C153.003 230.124 154.246 231.508 156.933 234.21H156.928ZM154.522 218.166C151.471 217.153 148.827 215.184 146.982 212.55C146.982 212.55 150.19 211.907 153.079 211.266C155.966 210.464 156.447 206.774 152.115 207.737C149.74 208.288 147.327 208.664 144.896 208.861C144.019 206.827 143.53 204.647 143.453 202.434C145.672 202.235 147.871 201.86 150.031 201.312C153.42 200.424 153.239 196.98 149.068 197.782C144.898 198.585 143.136 198.743 143.136 198.743C143.466 194.573 144.901 190.402 148.431 188.154C152.601 185.589 167.051 184.946 159.662 173.876C163.513 173.074 169.608 179.009 175.866 177.887C181.963 183.341 186.615 208.852 185.171 219.28C172.656 221.214 161.105 220.733 154.527 218.161L154.522 218.166ZM170.738 224.422C185.016 224.422 202.987 220.893 216.944 212.229C217.109 228.433 216.624 242.877 215.341 251.377C199.939 251.696 189.029 254.585 172.343 260.842C170.906 248.758 170.369 236.585 170.738 224.422ZM227.694 267.42C224.165 271.111 185.659 272.714 173.306 266.619C173.141 266.138 173.141 265.655 172.976 265.174C190.143 258.757 201.053 255.707 216.936 255.547C220.096 258.696 230.609 264.274 227.687 267.42H227.694ZM225.601 199.87C217.142 209.833 202.819 215.593 189.185 218.325C189.988 207.737 186.618 186.238 180.361 177.093C183.731 176.131 186.788 175.488 189.345 174.687C190.169 174.429 190.927 173.994 191.565 173.412C192.202 172.83 192.705 172.115 193.036 171.317C194.158 168.75 195.925 164.891 195.925 164.891C197.047 162.485 194.801 161.042 193.036 163.607C191.462 165.989 190.016 168.452 188.704 170.988C169.292 177.249 169.13 168.903 157.579 169.544C157.265 168.869 156.888 168.224 156.455 167.618C188.223 169.223 201.379 154.943 205.395 143.396C224.479 149.979 238.594 184.577 225.601 199.87ZM250.153 142.755C249.033 144.218 248.516 146.055 248.71 147.888C249.351 154.787 250.315 161.205 245.5 166.013C245.355 166.154 245.165 166.242 244.963 166.26C244.761 166.278 244.559 166.227 244.39 166.114C244.222 166.002 244.097 165.835 244.036 165.641C243.976 165.448 243.984 165.239 244.058 165.051C245.414 159.927 245.247 154.518 243.577 149.488C243.322 148.741 243.247 147.945 243.358 147.165C243.469 146.384 243.764 145.641 244.218 144.996C252.401 132.161 248.229 123.176 238.762 119.165C237.991 118.82 237.372 118.207 237.018 117.44C236.664 116.673 236.6 115.803 236.838 114.993C241.811 96.7023 233.147 89.4834 219.19 86.9161C218.563 86.8134 217.988 86.5077 217.552 86.0459C217.116 85.5841 216.844 84.9919 216.777 84.3604C215.013 70.5618 206.51 64.7863 197.203 63.9839C194.959 63.8191 192.071 62.5404 199.13 62.7003C210.359 63.0298 217.143 69.3244 219.826 84.1989C219.891 84.6283 220.102 85.0221 220.424 85.3143C220.745 85.6065 221.157 85.7793 221.591 85.8039C231.708 86.0444 239.4 89.8146 242.768 95.7499C246.299 100.403 243.892 106.5 242.287 112.597C242.088 113.363 242.174 114.175 242.528 114.883C242.882 115.591 243.481 116.147 244.213 116.448C256.094 120.299 257.048 133.3 250.148 142.76L250.153 142.755Z" fill="black"/>
<path d="M80.4047 291.487C71.5808 303.351 72.7029 312.023 81.8482 312.985C90.9934 313.948 94.3268 311.667 96.7689 309.456C100.063 305.451 103.066 301.215 105.754 296.781C107.679 293.411 107.04 293.22 105.112 293.092C101.907 292.877 102.065 297.102 94.0418 306.407C91.1532 309.777 85.699 309.135 82.972 308.815C77.5161 308.172 76.8751 302.883 84.0941 292.289C85.699 290.201 80.7244 290.523 80.4047 291.487Z" fill="#FFEFF3"/>
<path d="M148.43 115.164C147.136 114.866 145.789 114.885 144.504 115.221C143.219 115.556 142.034 116.196 141.05 117.088C139.285 119.013 141.692 121.099 143.617 119.815C144.118 119.446 144.69 119.184 145.298 119.045C145.905 118.907 146.535 118.896 147.146 119.013C147.932 119.147 148.676 119.464 149.317 119.938C149.958 120.411 150.479 121.03 150.837 121.742C150.946 121.99 151.104 122.214 151.303 122.399C151.502 122.583 151.736 122.725 151.992 122.816C152.248 122.906 152.519 122.943 152.79 122.923C153.06 122.904 153.324 122.83 153.565 122.704C156.839 120.832 152.208 115.973 148.43 115.164Z" fill="black"/>
<path d="M146.987 137.304C141.371 138.428 144.579 132.973 141.055 132.171C138.809 131.688 138.327 135.058 136.884 135.379C136.082 135.544 135.441 135.05 134.638 134.577C131.909 133.133 131.59 138.747 135.441 139.39C133.674 144.846 143.622 146.93 143.783 141.155C147.789 142.92 152.447 136.182 146.987 137.304Z" fill="black"/>
<path d="M165.437 112.275C168.508 111.869 171.63 112.143 174.583 113.078C176.654 113.762 177.806 110.311 175.705 109.548C169.649 107.349 162.229 111.313 159.662 105.857C158.859 104.254 157.576 104.094 157.095 104.575C155.651 105.697 156.159 106.81 156.613 107.943C157.635 110.488 160.945 112.597 165.437 112.275Z" fill="black"/>
<path d="M132.547 103.611C138.001 104.575 138.163 106.5 142.333 107.783C145.06 108.586 151.8 107.948 150.035 103.773C149.073 101.365 146.184 104.897 142.655 103.443C139.285 102 138.804 100.716 133.35 99.9137C130.782 99.7621 129.98 103.13 132.547 103.611Z" fill="black"/>
<path d="M35.0006 143.721C30.0276 144.043 30.6686 152.707 35.6433 152.866C51.0451 151.902 33.7187 128.801 31.3112 124.468C31.0998 124.211 30.8367 124.001 30.539 123.852C30.2413 123.703 29.9157 123.618 29.5831 123.602C29.2504 123.587 28.9183 123.641 28.608 123.762C28.2977 123.883 28.0162 124.067 27.7817 124.304C21.2037 132.004 12.861 133.128 12.5397 135.855C11.7372 141.149 25.8571 153.502 20.4013 157.996C18.9578 158.958 16.7119 157.034 17.9955 155.91C20.4013 156.551 21.525 152.702 19.1176 152.059C13.8233 150.616 10.9347 159.439 16.8717 161.845C22.4873 163.45 25.5358 160.562 25.5358 156.078C25.5358 150.784 21.3636 143.082 17.5143 137.306C21.707 135.098 25.5907 132.347 29.0653 129.125C29.2958 129.575 29.5643 130.003 29.8678 130.407C27.8879 132.881 25.5 134.999 22.807 136.669C21.8447 137.15 21.6849 137.791 22.3259 138.753C24.412 141.803 30.0276 135.385 32.2736 133.942C35.1621 140.038 40.7761 147.257 36.2843 148.862C35.4818 148.698 35.6433 148.22 35.6433 147.739C36.1051 147.582 36.4968 147.268 36.7487 146.85C37.0007 146.433 37.0967 145.94 37.0197 145.458C36.9426 144.977 36.6976 144.538 36.328 144.22C35.9584 143.902 35.4882 143.726 35.0006 143.721Z" fill="#FFEFF3"/>
<path d="M280.792 59.6524C280.956 59.1713 279.991 58.6901 279.508 58.5286C268.598 55.963 264.106 46.335 260.736 50.1859C257.688 53.7154 249.666 68.6411 244.853 65.9091C243.25 64.9468 244.688 61.0959 245.977 62.7008C246.211 63.0582 246.546 63.3377 246.939 63.5033C248.223 64.3058 249.666 63.3385 249.345 61.4172C248.544 56.2843 239.078 57.5663 239.88 64.1459C240.521 69.4386 243.568 70.0005 246.78 70.078C252.876 70.2312 261.058 58.5253 262.984 54.1933C266.875 57.1863 271.135 59.6668 275.659 61.5737L274.695 63.0188C271.674 62.1947 268.804 60.8947 266.192 59.168C266.013 58.9956 265.798 58.8656 265.562 58.7875C265.326 58.7095 265.076 58.6854 264.829 58.717C264.583 58.7486 264.347 58.8352 264.138 58.9703C263.93 59.1054 263.754 59.2855 263.625 59.4975C262.02 62.2246 270.043 64.9517 272.289 66.3952C267.797 71.6912 263.465 80.1937 259.931 76.5043C259.609 75.7019 260.25 75.5404 260.731 75.3805C266.347 78.4289 264.904 69.4485 259.128 71.6912C253.512 73.7756 255.92 81.7987 261.374 81.7987C269.241 81.7937 279.829 63.5033 280.792 59.6524Z" fill="#FFEFF3"/>
<path d="M116.824 188.325C117.353 188.131 117.837 187.831 118.247 187.445C118.658 187.059 118.986 186.594 119.211 186.078C119.437 185.561 119.556 185.005 119.561 184.441C119.566 183.878 119.457 183.319 119.24 182.799C119.023 182.279 118.704 181.808 118.3 181.415C117.897 181.021 117.418 180.714 116.892 180.511C116.367 180.307 115.806 180.212 115.243 180.232C114.679 180.251 114.126 180.384 113.616 180.623C108.962 182.709 111.37 190.571 116.824 188.325Z" fill="black"/>
<path d="M135.115 128.32C135.438 128.758 135.908 129.064 136.439 129.182C136.969 129.299 137.525 129.221 138.002 128.961C138.627 128.597 139.32 128.366 140.038 128.283C140.756 128.2 141.483 128.267 142.174 128.48C142.888 128.583 143.572 128.837 144.18 129.224C144.789 129.611 145.308 130.123 145.704 130.726C146.988 132.973 149.874 131.207 148.752 128.801C148.253 127.667 147.477 126.677 146.496 125.92C145.515 125.163 144.36 124.665 143.137 124.469C138.805 123.345 133.828 126.074 135.115 128.32Z" fill="black"/>
<path d="M178.112 127.517C179.877 129.603 182.604 126.233 180.518 124.469C177.469 121.901 170.731 118.372 165.597 118.05C163.031 117.886 161.105 117.886 160.784 119.815C160.143 123.987 171.694 121.105 178.112 127.517Z" fill="black"/>
<path d="M82.329 23.7211C82.1818 23.4891 81.9903 23.2884 81.7655 23.1306C81.5406 22.9728 81.2868 22.8609 81.0186 22.8013C80.7504 22.7418 80.4731 22.7358 80.2026 22.7836C79.932 22.8314 79.6736 22.9322 79.4421 23.0801C74.1478 25.967 72.3813 22.276 69.8157 24.3637C67.8895 27.0908 75.5912 37.6795 75.2699 46.8247C75.4347 50.3543 69.9756 49.392 70.6182 46.8247C70.6182 46.6599 71.0993 46.0222 72.3813 46.1821C74.9486 46.5116 74.6289 42.3312 72.0617 42.0115C64.3599 41.0492 64.0386 52.4404 72.7026 53.2412C85.061 52.2789 76.8748 34.6311 74.7887 28.213C79.4503 29.8179 83.934 27.5637 82.329 23.7211Z" fill="#FFEFF3"/>
<path d="M141.05 148.534C140.182 148.807 139.259 148.862 138.364 148.694C137.469 148.526 136.629 148.141 135.918 147.572C133.991 145.807 131.424 148.694 133.991 151.262C137.361 154.631 143.618 153.507 143.618 149.818C143.618 148.694 142.174 148.053 141.05 148.534Z" fill="black"/>
<path d="M229.932 307.85C225.279 308.814 218.666 309.511 216.135 307.85C213.53 306.142 210.841 300.631 206.83 292.929C206.188 291.645 202.658 291.807 202.658 293.893C202.658 295.336 207.953 304.641 211.322 308.973C214.049 312.503 216.617 313.787 225.6 313.305C239.399 312.503 237.794 305.123 228.489 291.004C228.168 289.721 226.243 289.561 225.119 290.042C222.231 291.166 235.388 306.727 229.932 307.85Z" fill="#FFEFF3"/>
<path d="M136.077 111.473C133.35 108.426 124.524 108.265 121.799 108.912C119.233 109.553 118.912 113.083 121.634 112.763C127.09 111.959 129.655 112.928 133.992 114.526C134.393 114.697 134.841 114.723 135.259 114.6C135.678 114.478 136.041 114.214 136.286 113.854C136.532 113.494 136.645 113.06 136.607 112.626C136.569 112.192 136.382 111.784 136.077 111.473Z" fill="black"/>
</svg>
